PP_AM2_Trial_4_OSim_ik										
version=1										
nRows=119										
nColumns=11										
inDegrees=yes										
										
"Units are S.I. units (second, meters, Newtons, ...)"										
Angles are in degrees.										
										
endheader										
time	secondmc_rx	secondmc_rz	secondmc_ry	secondmc_tx	secondmc_ty	secondmc_tz	2MCP_flexion	2MCP_abduction	2PIP_flexion	2DIP_flexion
0	-11.7698	12.7344	-101.5283	0.003079	0.075487	0.067946	23.7931	15	25.1898	19.1566
0.0083333	-11.77	12.7342	-101.5287	0.00308	0.075494	0.067944	23.7928	15	25.19	19.1572
0.016667	-11.7702	12.7341	-101.529	0.0030808	0.075501	0.067942	23.7924	14.9999	25.1903	19.1578
0.025	-11.7704	12.7339	-101.5293	0.0030813	0.075508	0.06794	23.792	14.9999	25.1905	19.1583
0.033333	-11.7705	12.7337	-101.5297	0.0030814	0.075515	0.067938	23.7917	14.9999	25.1908	19.1589
0.041667	-11.7707	12.7336	-101.53	0.0030811	0.075523	0.067936	23.7913	14.9998	25.191	19.1595
0.05	-11.7709	12.7335	-101.5304	0.0030803	0.07553	0.067934	23.7909	14.9998	25.1912	19.16
0.058333	-11.771	12.7333	-101.5307	0.0030791	0.075538	0.067932	23.7906	14.9998	25.1915	19.1606
0.066667	-11.7712	12.7332	-101.531	0.0030776	0.075545	0.067931	23.7902	14.9997	25.1917	19.1611
0.075	-11.7714	12.7331	-101.5314	0.0030757	0.075552	0.06793	23.7899	14.9997	25.1919	19.1617
0.083333	-11.7716	12.7329	-101.5317	0.0030736	0.075558	0.06793	23.7895	14.9997	25.1921	19.1622
0.091667	-11.7717	12.7328	-101.532	0.0030714	0.075564	0.067929	23.7891	14.9997	25.1923	19.1628
0.1	-11.7719	12.7327	-101.5323	0.0030692	0.075569	0.067929	23.7888	14.9997	25.1926	19.1633
0.10833	-11.7721	12.7326	-101.5326	0.0030671	0.075574	0.067929	23.7884	14.9997	25.1928	19.1638
0.11667	-11.7723	12.7325	-101.5329	0.0030653	0.075578	0.067929	23.7881	14.9997	25.193	19.1644
0.125	-11.7724	12.7324	-101.5332	0.0030637	0.075582	0.067929	23.7877	14.9997	25.1932	19.1649
0.13333	-11.7726	12.7323	-101.5335	0.0030623	0.075585	0.067929	23.7874	14.9997	25.1934	19.1654
0.14167	-11.7728	12.7322	-101.5338	0.0030611	0.075588	0.067929	23.787	14.9998	25.1937	19.166
0.15	-11.773	12.7321	-101.5341	0.0030601	0.07559	0.067929	23.7866	14.9998	25.1939	19.1665
0.15833	-11.7732	12.732	-101.5343	0.0030591	0.075593	0.067929	23.7863	14.9998	25.1941	19.1671
0.16667	-11.7734	12.7319	-101.5346	0.0030581	0.075596	0.067928	23.7859	14.9998	25.1943	19.1676
0.175	-11.7736	12.7318	-101.5348	0.0030568	0.075599	0.067928	23.7856	14.9999	25.1945	19.1681
0.18333	-11.7738	12.7317	-101.535	0.0030553	0.075602	0.067928	23.7853	14.9999	25.1947	19.1687
0.19167	-11.774	12.7316	-101.5353	0.0030534	0.075605	0.067927	23.7849	14.9999	25.1949	19.1692
0.2	-11.7742	12.7315	-101.5355	0.0030509	0.075609	0.067927	23.7846	15	25.1951	19.1697
0.20833	-11.7744	12.7313	-101.5357	0.0030478	0.075612	0.067928	23.7842	15	25.1954	19.1703
0.21667	-11.7746	12.7312	-101.5359	0.0030441	0.075616	0.067929	23.7839	15	25.1956	19.1708
0.225	-11.7748	12.7311	-101.5361	0.0030398	0.07562	0.067929	23.7835	15	25.1958	19.1714
0.23333	-11.775	12.731	-101.5362	0.003035	0.075623	0.067931	23.7832	15	25.196	19.1719
0.24167	-11.7752	12.7308	-101.5364	0.0030298	0.075627	0.067932	23.7829	15	25.1962	19.1725
0.25	-11.7754	12.7307	-101.5366	0.0030243	0.075631	0.067933	23.7825	15	25.1965	19.1731
0.25833	-11.7756	12.7305	-101.5367	0.0030186	0.075634	0.067935	23.7822	15	25.1967	19.1737
0.26667	-11.7759	12.7303	-101.5369	0.0030129	0.075638	0.067936	23.7818	15	25.1969	19.1743
0.275	-11.7761	12.7301	-101.5371	0.0030075	0.075642	0.067937	23.7815	15	25.1972	19.1749
0.28333	-11.7763	12.7299	-101.5372	0.0030023	0.075646	0.067938	23.7811	15	25.1974	19.1755
0.29167	-11.7765	12.7297	-101.5374	0.0029976	0.075649	0.067938	23.7808	15	25.1976	19.176
0.3	-11.7768	12.7295	-101.5375	0.0029935	0.075653	0.067939	23.7805	15	25.1979	19.1766
0.30833	-11.777	12.7294	-101.5377	0.0029901	0.075657	0.067939	23.7802	15	25.1981	19.1772
0.31667	-11.7772	12.7292	-101.5378	0.0029875	0.07566	0.067938	23.7799	15	25.1983	19.1777
0.325	-11.7774	12.729	-101.538	0.0029856	0.075663	0.067938	23.7797	15	25.1986	19.1782
0.33333	-11.7775	12.7289	-101.5381	0.0029845	0.075666	0.067937	23.7795	15	25.1988	19.1786
0.34167	-11.7777	12.7287	-101.5383	0.0029841	0.075669	0.067935	23.7793	15	25.199	19.179
0.35	-11.7778	12.7286	-101.5385	0.0029842	0.075671	0.067934	23.7792	15	25.1991	19.1794
0.35833	-11.778	12.7285	-101.5387	0.0029848	0.075673	0.067933	23.7791	15	25.1993	19.1797
0.36667	-11.7781	12.7284	-101.5388	0.0029857	0.075674	0.067932	23.779	15	25.1995	19.18
0.375	-11.7782	12.7284	-101.539	0.0029869	0.075675	0.067931	23.779	15	25.1996	19.1803
0.38333	-11.7783	12.7283	-101.5392	0.0029881	0.075675	0.06793	23.7789	15	25.1998	19.1806
0.39167	-11.7785	12.7282	-101.5394	0.0029893	0.075676	0.067929	23.7787	15	25.2	19.1809
0.4	-11.7787	12.7281	-101.5396	0.0029904	0.075676	0.067929	23.7785	15	25.2002	19.1814
0.40833	-11.7789	12.7279	-101.5397	0.0029914	0.075676	0.067929	23.7781	15	25.2004	19.182
0.41667	-11.7793	12.7276	-101.5399	0.0029921	0.075676	0.067929	23.7776	15	25.2007	19.1828
0.425	-11.7797	12.7273	-101.5401	0.0029926	0.075676	0.067929	23.7769	15	25.2011	19.1839
0.43333	-11.7802	12.7268	-101.5402	0.002993	0.075677	0.06793	23.776	15	25.2015	19.1852
0.44167	-11.7808	12.7263	-101.5403	0.0029931	0.075678	0.067931	23.7749	15	25.202	19.1869
0.45	-11.7816	12.7256	-101.5404	0.0029932	0.075679	0.067931	23.7735	15	25.2025	19.1887
0.45833	-11.7824	12.7248	-101.5404	0.0029932	0.075681	0.067932	23.772	15	25.2031	19.1908
0.46667	-11.7832	12.7241	-101.5405	0.0029933	0.075683	0.067933	23.7704	15	25.2038	19.1929
0.475	-11.784	12.7233	-101.5406	0.0029934	0.075686	0.067933	23.7689	15	25.2044	19.195
0.48333	-11.7847	12.7226	-101.5406	0.0029936	0.075688	0.067934	23.7675	15	25.2049	19.1969
0.49167	-11.7852	12.7221	-101.5407	0.002994	0.075691	0.067934	23.7666	15	25.2053	19.1982
0.5	-11.7855	12.7219	-101.5409	0.0029945	0.075694	0.067934	23.7663	15	25.2055	19.1988
0.50833	-11.7853	12.7221	-101.5411	0.002995	0.075697	0.067935	23.7668	15	25.2055	19.1983
0.51667	-11.7846	12.7227	-101.5414	0.0029956	0.0757	0.067935	23.7684	15	25.2051	19.1964
0.525	-11.7833	12.724	-101.5418	0.0029963	0.075703	0.067936	23.7712	15	25.2044	19.1931
0.53333	-11.7814	12.7258	-101.5424	0.0029968	0.075706	0.067936	23.7754	15	25.2033	19.1881
0.54167	-11.7789	12.7283	-101.543	0.0029973	0.07571	0.067936	23.7808	15.0001	25.2017	19.1814
0.55	-11.7758	12.7313	-101.5438	0.0029975	0.075714	0.067937	23.7874	15.0001	25.1999	19.1735
0.55833	-11.7725	12.7346	-101.5446	0.0029974	0.075719	0.067937	23.7946	15.0001	25.1978	19.1646
0.56667	-11.7691	12.738	-101.5455	0.002997	0.075725	0.067938	23.802	15.0001	25.1958	19.1557
0.575	-11.7661	12.7411	-101.5463	0.0029962	0.075731	0.067938	23.8087	15.0001	25.194	19.1477
0.58333	-11.764	12.7433	-101.5469	0.0029951	0.075738	0.067938	23.8135	15.0001	25.1927	19.1421
0.59167	-11.7635	12.7441	-101.5473	0.0029936	0.075745	0.067938	23.8152	15.0001	25.1925	19.1403
0.6	-11.765	12.7428	-101.5474	0.0029918	0.075752	0.067938	23.8126	15	25.1936	19.1442
0.60833	-11.7694	12.7389	-101.5469	0.0029898	0.07576	0.067937	23.8041	15	25.1964	19.1552
0.61667	-11.777	12.7317	-101.5458	0.0029877	0.075767	0.067936	23.7887	14.9999	25.2014	19.175
0.625	-11.7884	12.7208	-101.5441	0.0029859	0.075774	0.067934	23.7655	14.9998	25.2088	19.2044
0.63333	-11.8035	12.7062	-101.5416	0.0029845	0.075779	0.067932	23.7344	14.9997	25.2185	19.2437
0.64167	-11.8219	12.6881	-101.5385	0.0029838	0.075782	0.067928	23.696	14.9996	25.2304	19.292
0.65	-11.843	12.6674	-101.5348	0.0029842	0.075783	0.067924	23.6519	14.9995	25.2439	19.3471
0.65833	-11.8651	12.6454	-101.5308	0.0029861	0.075782	0.067919	23.6053	14.9994	25.258	19.4052
0.66667	-11.8862	12.6241	-101.5269	0.0029897	0.075777	0.067914	23.5604	14.9993	25.2716	19.4608
0.675	-11.9035	12.6062	-101.5235	0.0029953	0.075769	0.067908	23.5231	14.9993	25.2827	19.5069
0.68333	-11.9138	12.595	-101.5213	0.0030032	0.075757	0.067903	23.5001	14.9994	25.2892	19.5346
0.69167	-11.9132	12.5941	-101.5209	0.0030134	0.075743	0.067898	23.4993	14.9996	25.2889	19.5343
0.7	-11.8982	12.6073	-101.5229	0.0030261	0.075726	0.067893	23.5287	14.9999	25.2793	19.4963
0.70833	-11.8653	12.638	-101.528	0.0030413	0.075708	0.06789	23.5955	15.0003	25.2583	19.4113
0.71667	-11.8119	12.6888	-101.5368	0.003059	0.07569	0.067887	23.7053	15.0008	25.2242	19.2728
0.725	-11.7371	12.7611	-101.5494	0.0030791	0.075672	0.067886	23.8606	15.0014	25.1764	19.0778
0.73333	-11.6421	12.854	-101.5656	0.0031016	0.075655	0.067886	24.0593	15.002	25.1157	18.8292
0.74167	-11.5309	12.9637	-101.5848	0.0031264	0.07564	0.067886	24.2932	15.0026	25.0447	18.5376
0.75	-11.4113	13.0832	-101.6056	0.0031533	0.075626	0.067886	24.5468	15.0032	24.9682	18.2226
0.75833	-11.2948	13.2012	-101.626	0.0031822	0.075613	0.067885	24.796	15.0035	24.8937	17.9146
0.76667	-11.1975	13.3024	-101.6431	0.003213	0.075598	0.067882	25.0078	15.0036	24.8315	17.655
0.775	-11.1394	13.3675	-101.6531	0.0032455	0.075578	0.067875	25.1405	15.0031	24.794	17.496
0.78333	-11.1437	13.3734	-101.6518	0.0032799	0.075548	0.067863	25.1451	15.0021	24.7964	17.4988
0.79167	-11.2361	13.295	-101.6343	0.0033161	0.075502	0.067843	24.9677	15.0004	24.8548	17.7305
0.8	-11.4424	13.1063	-101.5957	0.0033545	0.075435	0.067814	24.5532	14.9979	24.9857	18.2591
0.80833	-11.7864	12.7832	-101.5314	0.0033954	0.07534	0.067775	23.8507	14.9946	25.2042	19.1476
0.81667	-12.2868	12.3062	-101.4378	0.0034389	0.075212	0.067724	22.8194	14.9904	25.5223	20.4457
0.825	-12.954	11.6637	-101.3126	0.0034851	0.075049	0.067661	21.4353	14.9856	25.9465	22.1821
0.83333	-13.7873	10.8547	-101.1557	0.0035338	0.07485	0.067586	19.6978	14.9802	26.4763	24.356
0.84167	-14.772	9.8918	-100.9695	0.0035845	0.074618	0.067501	17.6351	14.9745	27.1025	26.9307
0.85	-15.8786	8.8024	-100.7592	0.0036361	0.07436	0.067409	15.3067	14.9688	27.8062	29.8302
0.85833	-17.0637	7.6278	-100.5329	0.0036874	0.074085	0.067314	12.8023	14.9636	28.5599	32.9419
0.86667	-18.2737	6.4201	-100.3006	0.0037365	0.073807	0.067219	10.2337	14.9592	29.3293	36.1257
0.875	-19.4515	5.236	-100.0731	0.0037817	0.073538	0.067128	7.7214	14.9558	30.0782	39.232
0.88333	-20.5445	4.1288	-99.8605	0.0038212	0.07329	0.067046	5.3784	14.9535	30.7731	42.1214
0.89167	-21.5108	3.1421	-99.6713	0.0038536	0.073073	0.066975	3.2958	14.9523	31.3875	44.6824
0.9	-22.3228	2.3056	-99.5111	0.0038782	0.072892	0.066917	1.5356	14.9521	31.9036	46.8404
0.90833	-22.9678	1.6343	-99.3828	0.0038947	0.072749	0.066871	0.12778	14.9526	32.3136	48.5601
0.91667	-23.4465	1.1296	-99.2864	0.0039033	0.072645	0.066838	-0.92634	14.9536	32.6178	49.8419
0.925	-23.7706	0.78142	-99.2202	0.0039049	0.072576	0.066816	-1.6494	14.955	32.8237	50.7153
0.93333	-23.9599	0.57134	-99.1804	0.0039005	0.072536	0.066804	-2.0813	14.9565	32.9438	51.2308
0.94167	-24.0383	0.47586	-99.1625	0.0038914	0.072521	0.066799	-2.2725	14.9579	32.9935	51.4515
0.95	-24.032	0.46927	-99.1617	0.0038793	0.072523	0.0668	-2.2779	14.9592	32.9893	51.4458
0.95833	-23.9663	0.52603	-99.173	0.0038655	0.072537	0.066805	-2.1516	14.9603	32.9474	51.2804
0.96667	-23.8643	0.62272	-99.1919	0.0038513	0.072557	0.066813	-1.9431	14.9611	32.8824	51.0165
0.975	-23.7455	0.73927	-99.2145	0.0038379	0.072579	0.066823	-1.6946	14.9616	32.8068	50.7059
0.98333	-23.6253	0.85961	-99.2378	0.0038263	0.0726	0.066832	-1.4398	14.9619	32.7302	50.3896
